<?xml version="1.0"?><svg xmlns="http://www.w3.org/2000/svg" viewBox="0 0 512 512"><defs><style>.cls-1{fill:#ffc107;}.cls-2{fill:#ffa000;}.cls-3{fill:#ff8f00;}</style></defs><g id="Outline_Color" data-name="Outline Color"><g id="Color"><path class="cls-1" d="M75.049,412.14,173.9,488.833a67.1,67.1,0,0,0,90.673-7.764l223.16-244.351a50.918,50.918,0,0,0,5.133-62.027L461.732,127A107.792,107.792,0,0,0,434.266,98.3L322.709,18.335a49.421,49.421,0,0,0-64.673,6.179L26.5,268.932a56.763,56.763,0,0,0-6.879,69.2L45.692,379.7A125.377,125.377,0,0,0,75.049,412.14Z"/><path class="cls-2" d="M492.87,174.69l-31.14-47.7q-2.7-4.125-5.74-7.98L193.47,403.22a32.182,32.182,0,0,1-42.11,4.52L10.96,309.41a56.622,56.622,0,0,0,8.66,28.72L45.69,379.7a125.454,125.454,0,0,0,29.36,32.44l98.85,76.69A66.877,66.877,0,0,0,215,502.92h.01a66.954,66.954,0,0,0,49.56-21.85L487.73,236.72A50.928,50.928,0,0,0,492.87,174.69Z"/><path class="cls-3" d="M215,502.92a66.877,66.877,0,0,1-41.1-14.09L75.05,412.14A125.454,125.454,0,0,1,45.69,379.7L19.62,338.13a56.622,56.622,0,0,1-8.66-28.72l140.4,98.33a32.045,32.045,0,0,0,21.09,5.72Z"/></g><g id="Outline"><path d="M40.608,382.887A130.951,130.951,0,0,0,71.372,416.88l98.851,76.694a73.09,73.09,0,0,0,98.782-8.459l223.16-244.35a56.858,56.858,0,0,0,14.876-37.992,6.191,6.191,0,0,0,0-.639,56.831,56.831,0,0,0-9.149-30.722l-31.135-47.7a113.357,113.357,0,0,0-29-30.288L326.205,13.458a55.635,55.635,0,0,0-72.524,6.93L22.145,264.806a62.749,62.749,0,0,0-7.607,76.512Zm136.97,101.206L78.728,407.4a119,119,0,0,1-27.954-30.888L24.7,334.942a50.756,50.756,0,0,1-5.662-12.55l65.34,45.765-9.028,9.487a6,6,0,0,0,8.694,8.273l10.275-10.8,53.6,37.539a38.216,38.216,0,0,0,20.77,6.867L205.063,496A60.441,60.441,0,0,1,177.578,484.093ZM455.446,128.435c.42.614.855,1.215,1.262,1.839l31.124,47.68a44.823,44.823,0,0,1,5.469,12l-13.73-9.29a6,6,0,1,0-6.724,9.939l22.083,14.942A44.842,44.842,0,0,1,483.3,232.672l-223.16,244.35a60.988,60.988,0,0,1-41.471,19.656l-37.5-78.835a37.979,37.979,0,0,0,16.706-10.55L426.8,159.447,448,173.791a6,6,0,1,0,6.725-9.939l-19.687-13.321ZM30.855,273.059,262.392,28.641a43.582,43.582,0,0,1,56.821-5.43L430.771,103.18a101.538,101.538,0,0,1,17.235,15.625L189.063,399.155c-8.49,9.529-23.919,11.168-34.258,3.675l-52.117-36.5,2.041-2.143a6,6,0,0,0-8.694-8.273l-3.287,3.454L16.98,306.3A50.7,50.7,0,0,1,30.855,273.059Z"/><path d="M373.46,123.354l24.847,16.812a6,6,0,1,0,6.724-9.938l-24.846-16.812a6,6,0,1,0-6.725,9.938Z"/><path d="M125.409,342.451l20.68-21.733a6,6,0,0,0-8.693-8.273l-20.68,21.733a6,6,0,0,0,8.693,8.273Z"/><path d="M332.213,125.122l20.918-21.264a6,6,0,0,0,.557-7.761L335.626,71.521a6,6,0,1,0-9.672,7.1l14.784,20.132L323.66,116.7a6.134,6.134,0,0,0-.466,8.049A6,6,0,0,0,332.213,125.122Z"/><path d="M249.491,212.053l20.681-21.733a6,6,0,1,0-8.693-8.272L240.8,203.781a6,6,0,1,0,8.693,8.272Z"/><path d="M290.853,168.587l20.679-21.733a6,6,0,0,0-8.693-8.272l-20.68,21.733a6,6,0,0,0,8.694,8.272Z"/><path d="M208.131,255.519l20.681-21.733a6,6,0,1,0-8.694-8.272l-20.68,21.733a6,6,0,0,0,8.693,8.272Z"/><path d="M166.77,298.985l20.68-21.733a6,6,0,0,0-8.693-8.273l-20.681,21.733a6,6,0,0,0,8.694,8.273Z"/><path d="M308.2,54.443a6,6,0,1,0,9.672-7.1L300.112,23.16a6,6,0,0,0-9.672,7.1Z"/></g></g></svg>