<?xml version="1.0"?><svg xmlns="http://www.w3.org/2000/svg" viewBox="0 0 512 512"><defs><style>.cls-1{fill:#e91e63;}.cls-2{fill:#ec407a;}.cls-3{fill:#c2185b;}</style></defs><g id="Outline_Color" data-name="Outline Color"><g id="Color"><path class="cls-1" d="M47.359,418.718,15.956,366.6A47.276,47.276,0,0,1,9.9,333.929L49.816,109.418a47.278,47.278,0,0,1,59.63-37.156L452.4,171.023a47.278,47.278,0,0,1,28.487,22.914L497.1,223.883a47.277,47.277,0,0,1-23.925,66.378L105.5,438.179A47.276,47.276,0,0,1,47.359,418.718Z"/><path class="cls-2" d="M499.33,264.19,146.51,167.65a23.551,23.551,0,0,0-18.76,2.75L71.18,77.68a47.123,47.123,0,0,1,38.27-5.42L452.4,171.02a47.288,47.288,0,0,1,28.48,22.92l16.22,29.94A47.091,47.091,0,0,1,499.33,264.19Z"/><path class="cls-3" d="M127.75,170.4a23.5,23.5,0,0,0-10.73,15.79L72.25,438.94a47.178,47.178,0,0,1-24.89-20.22L15.96,366.6A47.261,47.261,0,0,1,9.9,333.93L49.82,109.42A47.086,47.086,0,0,1,71.18,77.68Z"/></g><g id="Outline"><path d="M486.158,191.079a53.7,53.7,0,0,0-32.1-25.821L111.106,66.5a53.276,53.276,0,0,0-67.2,41.871L4,332.879A53.389,53.389,0,0,0,10.817,369.7l31.4,52.114a53.12,53.12,0,0,0,65.516,21.93L475.419,295.827a53.277,53.277,0,0,0,26.961-74.8ZM52.5,415.622,21.1,363.508a41.25,41.25,0,0,1-4.187-9.493L40.057,345.3a6,6,0,1,0-4.229-11.231l-20.645,7.772a41.18,41.18,0,0,1,.628-6.863L55.724,110.468a41.344,41.344,0,0,1,13.74-24.074l50.389,82.575a29.686,29.686,0,0,0-8.738,16.145L87.407,314.654l-23.5,8.847a6,6,0,1,0,4.229,11.23l16.752-6.306L66.367,429.61A41.348,41.348,0,0,1,52.5,415.622ZM470.94,284.694,103.258,432.612a41.211,41.211,0,0,1-25.563,1.761l45.225-247.1c1.571-9.942,12.368-16.715,22-13.837l345.751,94.608A41.318,41.318,0,0,1,470.94,284.694Zm24.5-27.788L367.73,221.962l9.249-3.482a6,6,0,0,0-4.227-11.23L348,216.564l-199.914-54.7a29.71,29.71,0,0,0-18.045.773L79.611,79.984a41.355,41.355,0,0,1,28.175-1.956c4.841,1.564,341.732,98.085,346.273,99.887a5.994,5.994,0,0,0,7.151,8.862l4.763-1.792a41.24,41.24,0,0,1,9.634,11.809l16.222,29.946A41.317,41.317,0,0,1,495.438,256.906Z"/><path d="M116.558,310.092a6.007,6.007,0,0,0,7.728,3.5l28.076-10.569a6,6,0,1,0-4.226-11.23L120.06,302.363A6,6,0,0,0,116.558,310.092Z"/><path d="M292.747,250.185l28.077-10.569a6,6,0,1,0-4.226-11.23l-28.077,10.568a6,6,0,0,0,4.226,11.231Z"/><path d="M236.594,271.321l28.076-10.568a6,6,0,0,0-4.227-11.231l-28.076,10.569a6,6,0,1,0,4.227,11.23Z"/><path d="M428.906,186.114l-28.077,10.569a6,6,0,1,0,4.227,11.23l28.077-10.568a6,6,0,1,0-4.227-11.231Z"/><path d="M180.439,292.457l28.078-10.568a6,6,0,0,0-4.227-11.231l-28.077,10.569a6,6,0,0,0,4.226,11.23Z"/></g></g></svg>