<?xml version="1.0"?><svg xmlns="http://www.w3.org/2000/svg" viewBox="0 0 512 512"><defs><style>.cls-1{fill:#ffc107;}.cls-2{fill:#ffa000;}.cls-3{fill:#ff8f00;}</style></defs><g id="Outline_Color" data-name="Outline Color"><g id="Color"><path class="cls-1" d="M165.907,479.105,21.419,315.352a45.643,45.643,0,0,1-8.453-46.381l65.857-173.7A45.647,45.647,0,0,1,110.14,67.245L298.271,18.887A45.646,45.646,0,0,1,344.3,33.4l146.72,171.23a45.643,45.643,0,0,1,7.415,47.395L421.176,435.705a45.645,45.645,0,0,1-34.31,27.284L207.9,493.885A45.646,45.646,0,0,1,165.907,479.105Z"/><path class="cls-2" d="M491.02,204.63l-43.14-50.34L423.03,216.8,367.42,356.65a45.619,45.619,0,0,1-32.22,27.63L124.76,432.47l41.15,46.64a45.619,45.619,0,0,0,41.99,14.77l178.97-30.89a45.7,45.7,0,0,0,34.31-27.28l77.25-183.69A45.638,45.638,0,0,0,491.02,204.63Z"/><path class="cls-3" d="M409.76,451.82a45.573,45.573,0,0,1-22.89,11.17L207.9,493.88a45.619,45.619,0,0,1-41.99-14.77l-41.15-46.64L335.2,384.28a45.634,45.634,0,0,0,20.45-10.66Z"/></g><g id="Outline"><path d="M495.572,200.722,348.851,29.491a51.31,51.31,0,0,0-52.075-16.414L108.647,61.434a51.813,51.813,0,0,0-35.434,31.71L7.355,266.844a51.518,51.518,0,0,0,9.565,52.478L161.408,483.075A52.015,52.015,0,0,0,208.919,499.8l178.968-30.9a51.414,51.414,0,0,0,38.819-30.87L503.96,254.347A51.367,51.367,0,0,0,495.572,200.722ZM66.516,357.394l9.354-24.672a6,6,0,1,0-11.221-4.254L57.54,347.221,25.918,311.383A39.551,39.551,0,0,1,18.576,271.1L84.434,97.4a39.5,39.5,0,0,1,5.313-9.644l10.607,15.911a6,6,0,0,0,9.985-6.656L98.469,79.2a39.6,39.6,0,0,1,13.166-6.147L299.765,24.7a39.607,39.607,0,0,1,20.036.052V43.312a6,6,0,1,0,12,0v-13.1a40.071,40.071,0,0,1,7.937,7.085L440.969,155.44l-19.844,49.908-12.692-14.813a6,6,0,0,0-9.114,7.808l16.8,19.6L361.849,354.431a39.8,39.8,0,0,1-27.992,24L126.9,425.824Zm319.33,99.682-178.968,30.9a39.9,39.9,0,0,1-36.472-12.837l-34.474-39.07,200.609-45.934a51.938,51.938,0,0,0,17.8-7.851l47.305,68.359A39.652,39.652,0,0,1,385.846,457.076ZM492.9,249.7,415.645,433.379a39.889,39.889,0,0,1-5.189,8.9L363.411,374.3A52.073,52.073,0,0,0,373,358.866l76.791-193.132,36.67,42.795A39.431,39.431,0,0,1,492.9,249.7Z"/><path d="M224.465,122.543l-29.1,7.3a6,6,0,0,0,2.92,11.639l29.1-7.3a6,6,0,0,0-2.92-11.64Z"/><path d="M349.223,130.65a6,6,0,0,0,.653-8.461l-18.075-21.1V73.312a6,6,0,0,0-12,0V98.63l-8.04,2.017a6,6,0,0,0,2.92,11.64l8.979-2.252s12.826,14.972,17.1,19.962A6,6,0,0,0,349.223,130.65Z"/><path d="M282.662,107.946l-29.1,7.3a6,6,0,0,0,2.92,11.639l29.1-7.3a6,6,0,0,0-2.92-11.639Z"/><path d="M114.927,212.778a6,6,0,0,0-7.738,3.483L96.555,244.313a6,6,0,1,0,11.22,4.253l10.635-28.051A6,6,0,0,0,114.927,212.778Z"/><path d="M93.657,268.881a6,6,0,0,0-7.737,3.483L75.284,300.416a6,6,0,0,0,11.221,4.254l10.636-28.052A6,6,0,0,0,93.657,268.881Z"/><path d="M166.268,137.14l-25,6.269-14.294-21.44A6,6,0,0,0,117,128.625l14.9,22.346-14.068,37.238a6,6,0,1,0,11.221,4.254l14.005-37.127,26.138-6.556a6,6,0,0,0-2.92-11.64Z"/><path d="M379.8,175.561a6,6,0,1,0,9.113-7.808L369.4,144.972a6,6,0,0,0-9.114,7.807Z"/><path d="M447.471,236.1a6,6,0,0,0-9.114,7.808l19.519,22.781a6,6,0,1,0,9.113-7.807Z"/></g></g></svg>