<?xml version="1.0"?><svg xmlns="http://www.w3.org/2000/svg" viewBox="0 0 512 512"><defs><style>.cls-1{fill:#ffa000;}.cls-2{fill:#ffca28;}.cls-3{fill:#ffc107;}.cls-4{fill:#ff8f00;}</style></defs><g id="Outline_Color" data-name="Outline Color"><g id="Color"><path class="cls-1" d="M375.667,480.656,30.351,282.419a47.607,47.607,0,0,1-17.527-65.09l44.218-76.592a47.611,47.611,0,0,1,14.692-15.722L221.8,24.259a47.608,47.608,0,0,1,50.538-1.59l207.623,121.2a47.608,47.608,0,0,1,23.494,44.39L490.559,375.184a47.607,47.607,0,0,1-7.537,22.606l-43.7,67.46A47.605,47.605,0,0,1,375.667,480.656Z"/><path class="cls-2" d="M500.17,167.35l-60.14,96.81a23.789,23.789,0,0,1-32,8.12c-53.35-30.41-213.38-121.62-213.38-121.62a23.791,23.791,0,0,1-9.07-32.14L241.6,16.66a47.55,47.55,0,0,1,30.73,6.01l207.63,121.2A47.515,47.515,0,0,1,500.17,167.35Z"/><path class="cls-3" d="M185.58,118.52a23.694,23.694,0,0,0-2.25,17.18L6.86,247.34a47.3,47.3,0,0,1,5.96-30.01l44.22-76.59a47.625,47.625,0,0,1,14.69-15.72L221.8,24.26a47.48,47.48,0,0,1,19.8-7.6Z"/><path class="cls-4" d="M503.45,188.26,490.56,375.18a47.612,47.612,0,0,1-7.54,22.61l-43.69,67.46a47.4,47.4,0,0,1-23.97,18.95l6.08-208.85a23.763,23.763,0,0,0,18.59-11.19l60.14-96.81A47.448,47.448,0,0,1,503.45,188.26Z"/></g><g id="Outline"><path d="M285.621,258,259.9,242.569a6,6,0,0,0-6.173,10.289l25.724,15.435A6,6,0,1,0,285.621,258Z"/><path d="M182.721,196.266,157,180.831a6,6,0,1,0-6.174,10.289l25.724,15.435a6,6,0,1,0,6.174-10.289Z"/><path d="M337.071,288.872l-25.725-15.434a6,6,0,1,0-6.174,10.29L330.9,299.163a6,6,0,0,0,6.174-10.291Z"/><path d="M388.521,319.741,362.8,304.308a6,6,0,1,0-6.174,10.289l25.726,15.435a6,6,0,0,0,6.173-10.291Z"/><path d="M234.171,227.135,208.446,211.7a6,6,0,1,0-6.174,10.29L228,237.424a6,6,0,1,0,6.173-10.289Z"/><path d="M482.982,138.689,275.358,17.487a53.912,53.912,0,0,0-56.907,1.791L68.389,120.034a54.2,54.2,0,0,0-16.543,17.7L7.627,214.329c-14.95,24.7-5.592,59.443,19.737,73.293L372.68,485.859a53.639,53.639,0,0,0,71.682-17.347l43.7-67.46a54.076,54.076,0,0,0,8.486-25.455l12.891-186.923A53.281,53.281,0,0,0,482.982,138.689ZM18.02,220.329l44.218-76.592a41.38,41.38,0,0,1,2.733-4.126l8.676,5.205a6,6,0,1,0,6.174-10.289L73.8,130.913c.424-.31.846-.623,1.282-.916L225.14,29.241a40.8,40.8,0,0,1,3.969-2.318l-48.783,88.7a29.555,29.555,0,0,0-3.517,17.1l-48.672,30.793-22.591-13.555a6,6,0,1,0-6.173,10.29L116.785,170.7l-104.1,65.859A41.494,41.494,0,0,1,18.02,220.329ZM413.7,334.886a6,6,0,0,0-5.628,10.58L413.3,348.6l-3.816,131.119a41.49,41.49,0,0,1-30.831-4.269L33.338,277.216A41.336,41.336,0,0,1,13.877,251.95c-.151-.561-.283-1.123-.41-1.686L180.5,144.588a29.5,29.5,0,0,0,11.177,11.288L405.056,277.492a29.917,29.917,0,0,0,10.211,3.572Zm-2.7-67.82L197.619,145.45a17.872,17.872,0,0,1-6.779-24.04l54.49-99.082a41.623,41.623,0,0,1,23.98,5.523l207.623,121.2a41.472,41.472,0,0,1,16.486,17.784L434.936,260.99A17.748,17.748,0,0,1,411,267.066Zm86.468-79.218L484.574,374.771c-.056.82-.143,1.638-.248,2.453L465.7,366.046a6,6,0,0,0-6.174,10.289L480.9,389.163a41.425,41.425,0,0,1-2.917,5.365l-43.7,67.46a41.455,41.455,0,0,1-12.649,12.533L425.1,355.682l8.7,5.218a6,6,0,0,0,6.174-10.289L425.5,341.929l1.788-61.446a29.718,29.718,0,0,0,17.841-13.161L497.5,183.01A42.486,42.486,0,0,1,497.465,187.848Z"/></g></g></svg>