<?xml version="1.0"?><svg xmlns="http://www.w3.org/2000/svg" viewBox="0 0 512 512"><defs><style>.cls-1{fill:#66bb6a;}.cls-2{fill:#4caf50;}.cls-3{fill:#43a047;}.cls-4{fill:#388e3c;}.cls-5{fill:#2e7d32;}</style></defs><g id="Outline_Color" data-name="Outline Color"><g id="Color"><path class="cls-1" d="M12.953,251.356l2.493,61.07a47.992,47.992,0,0,0,8.14,24.844l56.751,84.317A48.007,48.007,0,0,0,94.582,435.4l84.307,53.082a48,48,0,0,0,32.766,6.839l34.6-5.243A48.006,48.006,0,0,0,270.5,478.9L483.437,294.355A48,48,0,0,0,500,258.082V198.419a48,48,0,0,0-7.946-26.451l-56.581-85.68a47.987,47.987,0,0,0-13.786-13.723L341.68,20.252a48,48,0,0,0-34.159-7.172l-40.416,6.736a48,48,0,0,0-23.222,10.8L29.8,212.848A48,48,0,0,0,12.953,251.356Z"/><path class="cls-2" d="M260.76,115.34,17.57,324.65a47.239,47.239,0,0,1-2.12-12.22l-2.5-61.07A47.984,47.984,0,0,1,29.8,212.85L243.88,30.61a47.828,47.828,0,0,1,11.09-7.06l4.6,85.68A24.23,24.23,0,0,0,260.76,115.34Z"/><path class="cls-3" d="M332.35,217.7,86.81,429.31a47.811,47.811,0,0,1-6.47-7.72L23.59,337.27a47.378,47.378,0,0,1-6.02-12.62L260.76,115.34a24,24,0,0,0,3.15,6.2l65.39,92.63A23.36,23.36,0,0,0,332.35,217.7Z"/><path class="cls-4" d="M439.32,284.85,197.11,495.3a48.067,48.067,0,0,1-18.22-6.81L94.58,435.4a47.854,47.854,0,0,1-7.77-6.09L332.35,217.7a23.987,23.987,0,0,0,3.6,2.83L431,281.51A23.828,23.828,0,0,0,439.32,284.85Z"/><path class="cls-5" d="M494.34,280.68a47.812,47.812,0,0,1-10.9,13.67L270.5,478.9a48.048,48.048,0,0,1-24.24,11.18l-34.61,5.25a48.209,48.209,0,0,1-14.54-.03L439.32,284.85h.01a23.367,23.367,0,0,0,6.94.35Z"/></g><g id="Outline"><path d="M254.459,400.073a6,6,0,0,0,12,.063l.021-4.068a30.006,30.006,0,0,0-.287-4.085l8-6.845a6,6,0,0,0-7.8-9.117l-4.621,3.954c-.087-.136-.162-.277-.251-.412l-6.6-10a6,6,0,0,0-10.014,6.614l6.606,10a17.865,17.865,0,0,1,2.974,9.887Z"/><path d="M176.888,281.188l6.188,4.046a18.056,18.056,0,0,1,5.177,5.162l7.052,10.679a6,6,0,0,0,10.013-6.613l-6.872-10.407,6.748-5.775a6,6,0,0,0-7.8-9.117l-7.359,6.3c-.127-.087-.25-.178-.379-.263l-6.2-4.052a6,6,0,1,0-6.567,10.042Z"/><path d="M78.56,222.435a18.075,18.075,0,0,1,12.617,2.716l10.382,6.788a6,6,0,1,0,6.566-10.043c-.684-.429-11.318-7.455-11.667-7.563l2.047-1.752a6,6,0,1,0-7.8-9.117l-7.957,6.808a28.233,28.233,0,0,0-6.023.3,6,6,0,0,0,1.836,11.86Z"/><path d="M342.571,326.619l22.793-19.506a6,6,0,1,0-7.8-9.117L334.768,317.5a6,6,0,0,0,7.8,9.117Z"/><path d="M296.985,365.632l22.793-19.506a6,6,0,1,0-7.8-9.117l-22.793,19.506a6,6,0,0,0,7.8,9.117Z"/><path d="M433.743,248.6l22.793-19.506a6,6,0,1,0-7.8-9.117L425.94,239.479a6,6,0,0,0,7.8,9.117Z"/><path d="M273.572,219.762l22.793-19.506a6,6,0,1,0-7.8-9.117L265.77,210.645a6,6,0,1,0,7.8,9.117Z"/><path d="M364.743,141.737l22.793-19.506a6,6,0,1,0-7.8-9.117L356.94,132.62a6,6,0,0,0,7.8,9.117Z"/><path d="M227.986,258.773l22.793-19.505a6,6,0,0,0-7.8-9.118l-22.793,19.506a6,6,0,1,0,7.8,9.117Z"/><path d="M166.887,154.065l22.793-19.5a6,6,0,0,0-7.8-9.118l-22.793,19.506a6,6,0,1,0,7.8,9.117Z"/><path d="M121.3,193.075l22.794-19.5a6,6,0,0,0-7.8-9.117l-22.794,19.5a6,6,0,1,0,7.8,9.117Z"/><path d="M212.474,115.055l22.793-19.506a6,6,0,1,0-7.8-9.117l-22.793,19.506a6,6,0,0,0,7.8,9.117Z"/><path d="M6.958,251.6l2.493,61.07a53.973,53.973,0,0,0,9.157,27.95L75.36,424.938A53.659,53.659,0,0,0,91.385,440.48l84.307,53.083a54.052,54.052,0,0,0,36.862,7.695l34.6-5.243a53.936,53.936,0,0,0,27.277-12.584L487.366,298.889A53.97,53.97,0,0,0,506,258.082V198.419a53.855,53.855,0,0,0-8.939-29.758L440.48,82.982a53.694,53.694,0,0,0-15.509-15.439L344.963,15.23a53.86,53.86,0,0,0-38.428-8.068L266.119,13.9a54,54,0,0,0-26.125,12.147L25.911,208.278A53.677,53.677,0,0,0,6.958,251.6ZM195.372,488.862a42,42,0,0,1-13.286-5.454L97.779,430.326c-.569-.358-1.125-.732-1.673-1.114L213.253,328.255l15.115,22.889a6,6,0,0,0,10.014-6.614l-15.964-24.173,110.119-94.9c.06.039.114.085.173.123l62.566,40.14-14.922,12.77a6,6,0,0,0,7.8,9.117l17.668-15.12,21.937,14.075c.086.055.177.1.264.156L265.787,427.68a5.994,5.994,0,0,0-5.453-3.576H260.3a6,6,0,0,0-6,5.968l-.04,7.622ZM479.507,289.82,266.574,474.362a41.927,41.927,0,0,1-21.216,9.787l-31.815,4.821,40.635-35.306-.033,6.408a6,6,0,1,0,12,.063l.089-16.946L441.2,291.164a28.386,28.386,0,0,0,5.644.008l34.81-3.369C480.964,288.5,480.253,289.174,479.507,289.82ZM268.092,25.733l37.634-6.271-9.88,8.454a6,6,0,1,0,7.8,9.117l20.639-17.661a41.984,41.984,0,0,1,14.11,5.9L418.4,77.586c.536.35,1.058.715,1.574,1.087L402.526,93.607a6,6,0,0,0,7.8,9.118l18.308-15.668c.635.823,1.252,1.663,1.829,2.538l56.581,85.679a42.054,42.054,0,0,1,4.237,8.284l-19.758,16.909a6,6,0,1,0,7.8,9.117l14.622-12.514c.014.45.049.9.049,1.349v59.663a41.965,41.965,0,0,1-3.523,16.812l-44.786,4.335a18.1,18.1,0,0,1-11.451-2.769l-95.056-60.984a17.74,17.74,0,0,1-4.982-4.766L315.208,183.8l26.743-22.56a6,6,0,1,0-7.8-9.117l-25.82,21.932-39.519-55.982a17.929,17.929,0,0,1-3.251-9.228l-2.377-37.186,17.673-15.123a6,6,0,1,0-7.8-9.117l-10.828,9.265L260.379,27.8A41.959,41.959,0,0,1,268.092,25.733ZM259.008,125l64.952,92.009L87.316,420.946c-.7-.876-1.371-1.773-2-2.71L28.563,333.92a42.064,42.064,0,0,1-3.962-7.405L124.8,240.282a5.994,5.994,0,0,0,1.874,8.073l25.11,16.417a6,6,0,1,0,6.566-10.043l-25.11-16.416a5.984,5.984,0,0,0-5.521-.543l131.2-112.917C258.945,124.9,258.974,124.952,259.008,125ZM22.557,232.237l26.568-4.652a6,6,0,1,0-2.07-11.82l-14.314,2.506c.315-.285.623-.577.948-.854L247.772,35.181c.326-.278.669-.53,1-.8l4.807,75.225a30.08,30.08,0,0,0,.461,3.6L21.527,313.328c-.026-.383-.07-.763-.086-1.147l-2.493-61.07A41.949,41.949,0,0,1,22.557,232.237Z"/></g></g></svg>